# xmcd CD database file
#
# Track frame offsets:
#	150
#	41440
#	69662
#	89922
#	113600
#	124910
#	132677
#	144285
#	158192
#	209757
#	241117
#	256147
#	270037
#	285400
#	298430
#	314305
#
# Disc length: 4737 seconds
#
# Revision: 0
# Processed by: cddbd v1.5.2PL0 Copyright (c) Steve Scherf et al.
# Submitted via: CDex 1.70beta2
#
DISCID=f5127f10
DTITLE=Lino Patruno with Pizzarelli, Vignola, Alden, Grosz and others - "Stringin' the Blues" - a tribute to Eddie Lang
DYEAR=2002
DGENRE=Jazz
TTITLE0=Sweet Georgia Brown
TTITLE1=Theese Foolish Things
TTITLE2=The Sheik Of Araby
TTITLE3=Fascinating Rhythm
TTITLE4=I'm Forever Blowing Bubbles - E Is For Emmet
TTITLE5=I'll Never Be The Same
TTITLE6=Peg Leg Shuffle
TTITLE7=From Monday On
TTITLE8=Tangerine - It Must Be True - Please - A Blues Serenade - April Kisses
TTITLE9=Broadway
TTITLE10=Polka Dots And Moonbeams
TTITLE11=Some Of These Days
TTITLE12=Sweet Sue, Just You
TTITLE13=Wild Cat
TTITLE14=Danzon
TTITLE15=Limehouse Blues
EXTD=YEAR: 2002
EXTT0=
EXTT1=
EXTT2=
EXTT3=
EXTT4=
EXTT5=
EXTT6=
EXTT7=
EXTT8=
EXTT9=
EXTT10=
EXTT11=
EXTT12=
EXTT13=
EXTT14=
EXTT15=
PLAYORDER=
